<svg width="74" height="74" viewBox="0 0 74 74" fill="none" xmlns="http://www.w3.org/2000/svg">
<g clip-path="url(#clip0_10982_635)">
<path d="M37 74C44.3179 74 51.4715 71.83 57.5561 67.7644C63.6407 63.6988 68.3831 57.9202 71.1835 51.1593C73.984 44.3984 74.7167 36.959 73.289 29.7817C71.8614 22.6044 68.3375 16.0116 63.1629 10.8371C57.9884 5.66251 51.3956 2.1386 44.2183 0.710951C37.041 -0.716703 29.6016 0.0160197 22.8407 2.81646C16.0798 5.6169 10.3012 10.3593 6.2356 16.4439C2.16999 22.5285 -2.1398e-05 29.6821 -2.20377e-05 37C0.0106889 46.8097 3.91233 56.2146 10.8489 63.1511C17.7854 70.0876 27.1903 73.9893 37 74V74ZM37 3.46875C43.6318 3.46875 50.1148 5.43533 55.629 9.11979C61.1431 12.8043 65.4409 18.0411 67.9788 24.1681C70.5167 30.2952 71.1808 37.0372 69.8869 43.5416C68.5931 50.0461 65.3996 56.0207 60.7102 60.7102C56.0207 65.3996 50.046 68.5931 43.5416 69.887C37.0372 71.1808 30.2952 70.5167 24.1681 67.9788C18.0411 65.4409 12.8042 61.1431 9.11976 55.629C5.4353 50.1148 3.46873 43.6319 3.46873 37C3.47944 28.1102 7.01563 19.5877 13.3016 13.3017C19.5876 7.01565 28.1102 3.47946 37 3.46875Z" fill="#3485FF"/>
<path d="M40.3993 53.2569C40.7281 53.5632 41.163 53.73 41.6123 53.7221C42.0616 53.7142 42.4903 53.5321 42.8081 53.2144C43.1258 52.8966 43.3079 52.4679 43.3158 52.0186C43.3237 51.5693 43.1569 51.1344 42.8506 50.8056L29.0449 37L42.8506 23.1944C43.021 23.0356 43.1577 22.8441 43.2524 22.6314C43.3472 22.4186 43.3982 22.189 43.4023 21.9561C43.4064 21.7232 43.3636 21.4919 43.2764 21.2759C43.1891 21.06 43.0593 20.8638 42.8946 20.6991C42.7299 20.5344 42.5337 20.4046 42.3178 20.3173C42.1018 20.2301 41.8705 20.1873 41.6376 20.1914C41.4047 20.1955 41.1751 20.2465 40.9623 20.3413C40.7496 20.4361 40.5581 20.5727 40.3993 20.7431L25.3681 35.7744C25.0433 36.0996 24.8609 36.5404 24.8609 37C24.8609 37.4596 25.0433 37.9004 25.3681 38.2256L40.3993 53.2569Z" fill="#3485FF"/>
</g>
<defs>
<clipPath id="clip0_10982_635">
<rect width="74" height="74" fill="white" transform="translate(74 74) rotate(-180)"/>
</clipPath>
</defs>
</svg>
